<svg id="Layer_1" data-name="Layer 1" xmlns="http://www.w3.org/2000/svg" viewBox="0 0 570.67 512"><defs><style>.cls-1{fill:none;stroke-width:8.91px;}.cls-1,.cls-2{stroke:#3aafa9;stroke-miterlimit:10;}.cls-2{fill:#3aafa9;stroke-width:2.23px;}</style></defs><title>virus_ikon_grønt</title><g id="Virus"><circle class="cls-1" cx="281.08" cy="252.72" r="148.42"/><circle class="cls-2" cx="229.95" cy="26.54" r="11.37"/><circle class="cls-2" cx="324.25" cy="49.29" r="11.37"/><circle class="cls-2" cx="374.57" cy="239.65" r="11.37"/><circle class="cls-2" cx="339.14" cy="197.7" r="11.37"/><circle class="cls-2" cx="331.95" cy="150.13" r="11.37"/><circle class="cls-2" cx="288.47" cy="244.76" r="11.37"/><circle class="cls-2" cx="189.4" cy="233.39" r="11.37"/><circle class="cls-2" cx="201.41" cy="174.16" r="11.37"/><circle class="cls-2" cx="415.13" cy="68.75" r="21.12"/><circle class="cls-2" cx="495.85" cy="174.16" r="14.22"/><circle class="cls-2" cx="211.54" cy="310.73" r="14.22"/><circle class="cls-2" cx="302.69" cy="301.32" r="14.22"/><circle class="cls-2" cx="363.19" cy="303.53" r="14.22"/><circle class="cls-2" cx="295.3" cy="342.36" r="14.22"/><circle class="cls-2" cx="536.51" cy="274.62" r="21.89"/><circle class="cls-2" cx="264.25" cy="183.4" r="21.89"/><circle class="cls-2" cx="486.41" cy="381.24" r="16.49"/><circle class="cls-2" cx="369.04" cy="450.48" r="11.37"/><circle class="cls-2" cx="246.27" cy="481.76" r="16.32"/><circle class="cls-2" cx="148.77" cy="426.59" r="12.51"/><circle class="cls-2" cx="89.63" cy="352.24" r="19.33"/><circle class="cls-2" cx="20.39" cy="248.36" r="11.37"/><circle class="cls-2" cx="44.09" cy="185.37" r="15.92"/><circle class="cls-2" cx="85.6" cy="129.33" r="13.65"/><circle class="cls-2" cx="126.46" cy="74.31" r="13.65"/><line class="cls-1" x1="406.69" y1="82.7" x2="372.63" y2="135.9"/><line class="cls-1" x1="488.07" y1="179.34" x2="420.84" y2="202.68"/><line class="cls-1" x1="518.21" y1="274.62" x2="428.8" y2="267.08"/><line class="cls-1" x1="473.51" y1="373.51" x2="406" y2="332.9"/><line class="cls-1" x1="322.59" y1="55.4" x2="311.22" y2="107.37"/><line class="cls-1" x1="231.61" y1="32.66" x2="247.93" y2="108.03"/><line class="cls-1" x1="133.92" y1="81.39" x2="188.16" y2="137"/><line class="cls-1" x1="92.04" y1="136.34" x2="154.42" y2="175.34"/><line class="cls-1" x1="54.76" y1="186.76" x2="141.32" y2="202.68"/><line class="cls-1" x1="22.92" y1="247.89" x2="132.66" y2="252.72"/><line class="cls-1" x1="103.33" y1="343.6" x2="149.59" y2="321.6"/><line class="cls-1" x1="151.6" y1="421.13" x2="192.17" y2="371.57"/><line class="cls-1" x1="247.93" y1="467.1" x2="256.77" y2="399.15"/><line class="cls-1" x1="367.57" y1="445.56" x2="341.45" y2="388.34"/></g></svg>