<svg id="Layer_1" data-name="Layer 1" xmlns="http://www.w3.org/2000/svg" viewBox="0 0 570.67 512"><defs><style>.cls-1{fill:none;stroke:#9f2383;stroke-miterlimit:10;stroke-width:6.51px;}.cls-2{fill:#9f2383;}</style></defs><title>virus_ikon_lilla</title><g id="Virus_stort" data-name="Virus stort"><circle class="cls-1" cx="281.88" cy="257.21" r="145.44"/><circle class="cls-2" cx="231.77" cy="32.03" r="11.15"/><circle class="cls-2" cx="324.19" cy="54.32" r="11.15"/><circle class="cls-2" cx="373.49" cy="244.39" r="11.15"/><circle class="cls-2" cx="373.49" cy="244.39" r="11.15"/><circle class="cls-2" cx="373.49" cy="244.39" r="11.15"/><circle class="cls-2" cx="338.78" cy="203.29" r="11.15"/><circle class="cls-2" cx="331.73" cy="156.67" r="11.15"/><circle class="cls-2" cx="289.13" cy="249.41" r="11.15"/><circle class="cls-2" cx="192.04" cy="238.26" r="11.15"/><circle class="cls-2" cx="203.8" cy="180.22" r="11.15"/><circle class="cls-2" cx="413.24" cy="73.4" r="20.7"/><circle class="cls-2" cx="495.87" cy="180.22" r="13.93"/><circle class="cls-2" cx="213.73" cy="314.05" r="13.93"/><circle class="cls-2" cx="303.06" cy="304.83" r="13.93"/><circle class="cls-2" cx="362.35" cy="307" r="13.93"/><circle class="cls-2" cx="295.81" cy="345.05" r="13.93"/><circle class="cls-2" cx="535.71" cy="278.67" r="21.45"/><circle class="cls-2" cx="265.39" cy="189.27" r="21.45"/><circle class="cls-2" cx="483.1" cy="383.15" r="16.16"/><circle class="cls-2" cx="371.6" cy="454.53" r="11.15"/><circle class="cls-2" cx="247.77" cy="481.66" r="15.99"/><circle class="cls-2" cx="148.7" cy="431.12" r="12.26"/><circle class="cls-2" cx="90.74" cy="354.73" r="18.95"/><circle class="cls-2" cx="22.43" cy="252.47" r="8.08"/><circle class="cls-2" cx="46.12" cy="187.69" r="15.6"/><circle class="cls-2" cx="86.8" cy="136.29" r="13.37"/><circle class="cls-2" cx="130.35" cy="78.84" r="13.37"/><line class="cls-1" x1="404.97" y1="90.59" x2="371.6" y2="142.73"/><line class="cls-1" x1="484.72" y1="185.3" x2="418.84" y2="208.17"/><line class="cls-1" x1="514.26" y1="278.67" x2="426.65" y2="271.28"/><line class="cls-1" x1="470.45" y1="375.58" x2="404.29" y2="335.78"/><line class="cls-1" x1="322.56" y1="63.84" x2="311.42" y2="114.77"/><line class="cls-1" x1="233.4" y1="41.55" x2="249.39" y2="115.41"/><line class="cls-1" x1="137.67" y1="89.31" x2="190.82" y2="143.81"/><line class="cls-1" x1="96.62" y1="143.16" x2="157.75" y2="181.37"/><line class="cls-1" x1="60.09" y1="192.57" x2="144.92" y2="208.17"/><line class="cls-1" x1="28.89" y1="252.47" x2="136.44" y2="257.21"/><line class="cls-1" x1="107.69" y1="346.27" x2="153.02" y2="324.71"/><line class="cls-1" x1="154.99" y1="422.24" x2="194.75" y2="373.68"/><line class="cls-1" x1="249.39" y1="467.3" x2="258.06" y2="400.7"/><line class="cls-1" x1="366.64" y1="446.19" x2="341.04" y2="390.11"/></g></svg>