<svg id="Layer_1" data-name="Layer 1" xmlns="http://www.w3.org/2000/svg" viewBox="0 0 570.67 512"><defs><style>.cls-1,.cls-2,.cls-3,.cls-4{fill:#2c7b79;stroke:#2c7b79;stroke-miterlimit:10;}.cls-1{stroke-width:6.67px;}.cls-2{stroke-width:1.67px;}.cls-3{stroke-width:2.46px;}.cls-4{stroke-width:20px;}</style></defs><title>virus_ikon_full_gront</title><g id="Virus_stort" data-name="Virus stort"><circle class="cls-1" cx="282.14" cy="259.27" r="149.07"/><circle class="cls-2" cx="230.78" cy="28.48" r="11.42"/><circle class="cls-3" cx="328.96" cy="45.86" r="16.88"/><circle class="cls-2" cx="376.03" cy="246.13" r="11.42"/><circle class="cls-2" cx="376.03" cy="246.13" r="11.42"/><circle class="cls-2" cx="376.03" cy="246.13" r="11.42"/><circle class="cls-2" cx="340.45" cy="204" r="11.42"/><circle class="cls-2" cx="333.23" cy="156.22" r="11.42"/><circle class="cls-2" cx="289.56" cy="251.27" r="11.42"/><circle class="cls-2" cx="190.05" cy="239.85" r="11.42"/><circle class="cls-2" cx="202.11" cy="180.36" r="11.42"/><circle class="cls-2" cx="416.77" cy="70.87" r="21.21"/><circle class="cls-2" cx="501.45" cy="180.36" r="14.28"/><circle class="cls-2" cx="212.29" cy="317.52" r="14.28"/><circle class="cls-2" cx="303.84" cy="308.07" r="14.28"/><circle class="cls-2" cx="364.61" cy="310.29" r="14.28"/><circle class="cls-2" cx="296.41" cy="349.29" r="14.28"/><circle class="cls-2" cx="542.29" cy="281.25" r="21.99"/><circle class="cls-2" cx="265.23" cy="189.64" r="21.99"/><circle class="cls-2" cx="488.36" cy="388.34" r="16.56"/><circle class="cls-2" cx="374.09" cy="461.49" r="11.42"/><circle class="cls-2" cx="247.17" cy="489.31" r="16.39"/><circle class="cls-2" cx="145.63" cy="437.51" r="12.57"/><circle class="cls-2" cx="86.23" cy="359.21" r="19.42"/><circle class="cls-2" cx="16.22" cy="254.41" r="8.28"/><circle class="cls-2" cx="40.5" cy="188.01" r="15.99"/><circle class="cls-2" cx="82.19" cy="135.33" r="13.71"/><circle class="cls-2" cx="126.83" cy="76.45" r="13.71"/><line class="cls-4" x1="408.29" y1="88.49" x2="374.09" y2="141.93"/><line class="cls-4" x1="490.03" y1="185.56" x2="422.51" y2="209"/><line class="cls-4" x1="520.3" y1="281.25" x2="430.51" y2="273.68"/><line class="cls-4" x1="475.4" y1="380.58" x2="407.6" y2="339.8"/><line class="cls-4" x1="323.83" y1="61.08" x2="312.41" y2="113.28"/><line class="cls-4" x1="232.45" y1="38.23" x2="248.84" y2="113.93"/><line class="cls-4" x1="134.33" y1="87.18" x2="188.81" y2="143.04"/><line class="cls-4" x1="92.26" y1="142.37" x2="154.92" y2="181.54"/><line class="cls-4" x1="54.82" y1="193.01" x2="141.76" y2="209"/><line class="cls-4" x1="22.84" y1="254.41" x2="133.07" y2="259.27"/><line class="cls-4" x1="103.61" y1="350.54" x2="150.07" y2="328.44"/><line class="cls-4" x1="152.09" y1="428.41" x2="192.84" y2="378.63"/><line class="cls-4" x1="248.84" y1="474.59" x2="257.72" y2="406.33"/><line class="cls-4" x1="369" y1="452.95" x2="342.76" y2="395.48"/></g></svg>